<svg width="22" height="22" viewBox="0 0 22 22" fill="none" xmlns="http://www.w3.org/2000/svg">
<path d="M16.8819 18.2971C15.1231 19.4126 13.0826 20.0034 10.9999 20.0001C5.60791 20.0001 1.12191 16.1201 0.180908 11.0001C0.610938 8.67078 1.78254 6.54296 3.52091 4.93407L0.391908 1.80807L1.80691 0.393066L21.6059 20.1931L20.1909 21.6071L16.8809 18.2971H16.8819ZM4.93491 6.35007C3.57591 7.58566 2.62923 9.20885 2.22291 11.0001C2.5352 12.3665 3.16217 13.6412 4.05391 14.7227C4.94565 15.8041 6.07753 16.6625 7.35946 17.2294C8.64139 17.7963 10.038 18.0561 11.438 17.9882C12.838 17.9203 14.2029 17.5264 15.4239 16.8381L13.3959 14.8101C12.5326 15.3539 11.5101 15.5882 10.4961 15.4745C9.48218 15.3608 8.53695 14.906 7.81548 14.1845C7.09401 13.463 6.63914 12.5178 6.52547 11.5038C6.4118 10.4899 6.64609 9.46738 7.18991 8.60407L4.93491 6.35007ZM11.9139 13.3281L8.67191 10.0861C8.49397 10.539 8.4521 11.034 8.55141 11.5104C8.65073 11.9868 8.88693 12.4238 9.23103 12.7679C9.57513 13.1121 10.0122 13.3482 10.4886 13.4476C10.965 13.5469 11.46 13.505 11.9129 13.3271L11.9139 13.3281ZM19.8069 15.5921L18.3759 14.1621C19.0444 13.2094 19.5203 12.1353 19.7769 11.0001C19.5051 9.80979 18.9942 8.68721 18.2751 7.70056C17.5559 6.71391 16.6437 5.88379 15.5938 5.26067C14.5439 4.63755 13.3782 4.23443 12.1676 4.07583C10.9571 3.91723 9.72691 4.00645 8.55191 4.33807L6.97391 2.76007C8.22091 2.27007 9.57991 2.00007 10.9999 2.00007C16.3919 2.00007 20.8779 5.88007 21.8189 11.0001C21.5125 12.6658 20.8238 14.2376 19.8069 15.5921ZM10.7229 6.50807C11.3594 6.46873 11.997 6.56513 12.5935 6.79088C13.1899 7.01663 13.7315 7.36658 14.1825 7.81752C14.6334 8.26846 14.9833 8.81009 15.2091 9.40652C15.4348 10.003 15.5312 10.6406 15.4919 11.2771L10.7219 6.50807H10.7229Z" fill="currentColor"/>
</svg>
